<svg width="86" height="49" viewBox="0 0 86 49" fill="none" xmlns="http://www.w3.org/2000/svg">
<path d="M58.7071 40.1291V40.6701H30.4011L27.935 38.1834C27.2925 37.5352 26.9707 36.7787 26.9707 35.9131L27.082 8.45265V8.34546L58.7071 40.1291Z" fill="#E0E0E0"/>
<path d="M27.0858 8.34058L27.2912 37.4262L20.1937 30.6152C18.692 29.1013 18.263 26.6135 19.2284 24.6688L27.0858 8.34058Z" fill="#8C8C8C"/>
<path d="M58.7064 40.6702V48.8869H38.6555L30.4004 40.6692L58.7064 40.6702Z" fill="#808080"/>
<path d="M54.9137 8.72832L27.0762 8.34244L42.0868 0.665778C43.0402 0.186974 44.1158 0.0133055 45.1697 0.168007C46.2236 0.322708 47.2055 0.798401 47.9841 1.53144L54.9137 8.72832Z" fill="#E0E0E0"/>
<path d="M67.2842 20.4526V40.6702H58.7063V40.1292L27.0762 8.34351H53.3452C54.3106 8.34351 55.2749 8.77532 56.0268 9.42457L67.2842 20.4526Z" fill="#8C8C8C"/>
</svg>
