<svg width="85" height="49" viewBox="0 0 85 49" fill="none" xmlns="http://www.w3.org/2000/svg">
<path d="M48.6149 20.9632C47.9923 19.8926 47.0996 19.0042 46.0261 18.3866C44.9527 17.769 43.736 17.4438 42.4975 17.4436C41.5697 17.4436 40.651 17.6265 39.794 17.9819C38.937 18.3372 38.1585 18.858 37.5029 19.5145C36.8473 20.171 36.3276 20.9503 35.9735 21.8078C35.6193 22.6653 35.4376 23.5842 35.439 24.512C35.4315 25.7439 35.753 26.9555 36.3703 28.0216L42.5662 24.4433L48.6149 20.9632Z" fill="#ADADAD"/>
<path d="M63.349 12.4832C62.9773 11.8503 62.4423 11.3289 61.8001 10.9735L44.7321 1.16992C44.0541 0.732595 43.2644 0.5 42.4577 0.5C41.6509 0.5 40.8612 0.732595 40.1832 1.16992C37.9186 2.5032 26.5857 9.01276 23.2035 10.9735C22.5505 11.3226 22.0097 11.8494 21.6436 12.493C21.2775 13.1367 21.1012 13.8709 21.1349 14.6106V34.4138C21.1212 35.141 21.2933 35.8598 21.6349 36.5019L30.1836 31.6002C28.9507 29.4524 28.305 27.018 28.3111 24.5416C28.3099 22.6779 28.6758 20.8322 29.3882 19.1099C30.1005 17.3877 31.1452 15.8227 32.4626 14.5044C33.78 13.1861 35.3443 12.1403 37.066 11.4268C38.7877 10.7133 40.6332 10.3461 42.4969 10.3461C44.9879 10.3441 47.4356 10.9981 49.5937 12.2424C51.7517 13.4866 53.5441 15.2772 54.7905 17.434L63.349 12.5323" fill="#ADADAD"/>
<path d="M63.3704 36.5019C62.9984 37.1515 62.4561 37.6871 61.8018 38.0509L44.7339 47.8544C44.0512 48.2844 43.259 48.5085 42.4522 48.4998C41.6454 48.4911 40.8583 48.25 40.185 47.8054C37.9204 46.4721 26.5777 39.9625 23.2053 38.0018C22.8697 37.81 22.5601 37.5761 22.2838 37.3058C22.2199 37.2452 22.1609 37.1796 22.1073 37.1097L21.921 36.9038C21.8137 36.7618 21.7186 36.611 21.6367 36.4529L30.1854 31.5511C31.428 33.7193 33.221 35.521 35.383 36.7741C37.5451 38.0273 39.9997 38.6875 42.4987 38.6881C45.0096 38.6959 47.4776 38.0377 49.6511 36.7804C51.8246 35.5232 53.6257 33.712 54.8707 31.5315L63.3704 36.5019Z" fill="#8C8C8C"/>
<path d="M36.3691 28.0219C36.9861 29.1025 37.8778 30.0008 38.9538 30.6258C40.0299 31.2507 41.252 31.5801 42.4964 31.5806C43.752 31.5811 44.9852 31.2472 46.069 30.6132C47.1527 29.9791 48.048 29.0677 48.6628 27.9729L42.565 24.4436L36.3691 28.0219Z" fill="#8C8C8C"/>
<path d="M48.6131 20.963L42.5645 24.4432L48.6623 27.9725L63.3676 36.5016C63.7104 35.8564 63.8825 35.1341 63.8675 34.4036V14.6201C63.8832 13.8746 63.7041 13.1379 63.3479 12.4829L54.7895 17.3847L48.6131 20.963ZM57.8481 21.659V20.3159H59.5736V21.659H60.75V23.3845H59.5736V25.6491H60.75V27.3745H59.5736V28.7176H57.809V27.3745H55.3972V28.7176H53.6719V27.3745H52.5151V25.6491H53.6719V23.3943H52.5151V21.6688H53.6719V20.3257H55.3972V21.6688L57.8481 21.659Z" fill="#E0E0E0"/>
<path d="M57.8483 23.3848H55.4366V25.6494H57.8483V23.3848ZM48.6622 27.9729L42.5645 24.4436L48.6622 27.9825V27.9729Z" fill="#E0E0E0"/>
</svg>
