<svg width="86" height="49" viewBox="0 0 86 49" fill="none" xmlns="http://www.w3.org/2000/svg">
<path d="M79.9092 29.1797L77.9397 23.1809C77.6506 22.2865 76.8194 21.6903 75.8798 21.6903H71.7331L65.4361 15.9444C65.0838 15.6282 64.6411 15.4295 64.1804 15.3843C64.1171 15.3843 64.0448 15.3752 63.9816 15.3752H53.7818V12.6649C53.7818 11.3911 52.7519 10.3612 51.4781 10.3612H49.9964V4.08231C49.9964 2.88074 49.0297 1.91406 47.8282 1.91406C46.6266 1.91406 45.6599 2.88074 45.6599 4.08231V10.3612H44.1783C42.9044 10.3612 41.8745 11.3911 41.8745 12.6649V15.3752H39.4624C39.0016 15.3752 38.5499 15.5198 38.1795 15.7999L34.4393 18.5553L15.6659 22.6298L12.3412 15.6372C11.9437 15.0048 11.2481 14.6254 10.5073 14.6254H8.14929C7.53496 14.6254 6.95676 14.8874 6.54114 15.3391C6.12556 15.7908 5.9268 16.3961 5.99005 17.0014L7.43558 32.152C7.54399 33.2633 8.47453 34.1125 9.59479 34.1125H14.3198C14.8076 34.1125 15.2774 33.9499 15.6659 33.6427L16.9759 32.6038L34.6471 33.4982L44.8197 39.5241V44.2852C44.8197 45.0802 45.4702 45.7307 46.2652 45.7307C47.0603 45.7307 47.7107 45.0802 47.7107 44.2852V41.1503C47.9004 41.2045 48.1082 41.2406 48.307 41.2406H62.8071V44.2852C62.8071 45.0802 63.4576 45.7307 64.2526 45.7307C65.0477 45.7307 65.6981 45.0802 65.6981 44.2852V40.7166L79.069 31.6642C79.873 31.1221 80.2163 30.1103 79.9092 29.1888V29.1797ZM56.8264 23.8585V19.7208H63.1324L67.7038 23.8585H56.8264Z" fill="#ADADAD"/>
<path d="M52.5712 15.3749H39.4533C38.9926 15.3749 38.5409 15.5194 38.1704 15.7995L34.4302 18.5549L15.6568 22.6294L12.3322 15.6368C11.9347 15.0044 11.239 14.625 10.4982 14.625H8.14929C7.53496 14.625 6.95676 14.887 6.54114 15.3387C6.12556 15.7904 5.9268 16.3957 5.99005 17.001L7.43558 32.1516C7.54399 33.2629 8.47453 34.1121 9.59479 34.1121H14.3198C14.8076 34.1121 15.2774 33.9495 15.6659 33.6423L16.9759 32.6034L34.6471 33.4978L47.2048 40.9421C47.5391 41.1408 47.9185 41.2492 48.307 41.2492H52.5712V15.3749Z" fill="#8C8C8C"/>
<path d="M56.1137 27.1836H55.0024C54.9211 26.0543 53.9906 25.1689 52.8523 25.1689H39.382C37.4668 25.1689 35.9219 26.7229 35.9219 28.6291C35.9219 30.5354 37.4758 32.0893 39.382 32.0893H52.8523C53.9996 32.0893 54.9302 31.1949 55.0024 30.0746H56.1137C56.9087 30.0746 57.5592 29.4241 57.5592 28.6291C57.5592 27.8341 56.9087 27.1836 56.1137 27.1836Z" fill="#FAFAFA"/>
<path fill-rule="evenodd" clip-rule="evenodd" d="M17.8147 3.15186H77.8209C79.0134 3.15186 79.9892 4.11853 79.9892 5.3201C79.9892 6.52167 79.0225 7.48835 77.8209 7.48835H17.8147C16.6132 7.48835 15.6465 6.52167 15.6465 5.3201C15.6465 4.11853 16.6132 3.15186 17.8147 3.15186ZM43.2735 42.7495H67.2327C68.4342 42.7495 69.4009 43.7162 69.4009 44.9177C69.4009 46.1193 68.4342 47.086 67.2327 47.086H43.2735C42.072 47.086 41.1053 46.1193 41.1053 44.9177C41.1053 43.7162 42.072 42.7495 43.2735 42.7495Z" fill="#E0E0E0"/>
</svg>
