<svg width="86" height="49" viewBox="0 0 86 49" fill="none" xmlns="http://www.w3.org/2000/svg">
<g clip-path="url(#clip0_4941_12500)">
<path d="M28.0317 23.6248L25.8477 24.9164L28.0317 26.2098C28.6958 26.6027 29.2474 27.1681 29.6308 27.849C30.0143 28.53 30.2162 29.3025 30.2162 30.0889C30.2162 30.8753 30.0143 31.6478 29.6308 32.3288C29.2474 33.0098 28.6958 33.5751 28.0317 33.9681C26.6797 34.7681 25.0157 34.7681 23.6637 33.9681L21.4797 32.6748V27.5031L19.2973 28.7964L17.1133 27.5031V35.2614L19.2973 36.5548L21.4813 37.8481C22.8091 38.6341 24.3152 39.0479 25.8483 39.0478C27.3814 39.0477 28.8875 38.6337 30.2151 37.8474C31.5428 37.0612 32.6453 35.9304 33.4119 34.5686C34.1784 33.2069 34.582 31.6622 34.582 30.0898C34.5824 28.517 34.1791 26.9719 33.4127 25.6097C32.6462 24.2475 31.5436 23.1163 30.2157 22.3298L28.0317 21.0381V23.6248Z" fill="#ADADAD"/>
<path d="M14.9032 10.6999C13.5752 11.4861 12.4724 12.617 11.7056 13.9789C10.9389 15.3407 10.5352 16.8856 10.5352 18.4583V21.0449L10.6684 20.9666L12.7192 19.7516L14.9032 21.0449V18.4583C14.9029 17.6718 15.1046 16.8991 15.488 16.218C15.8713 15.5368 16.4228 14.9713 17.087 14.5781C17.7511 14.185 18.5045 13.9782 19.2713 13.9785C20.0381 13.9788 20.7913 14.1863 21.4552 14.5799C22.1188 14.9731 22.6698 15.5385 23.0529 16.2193C23.436 16.9 23.6376 17.6723 23.6375 18.4583V21.0449L19.2695 23.6316L21.4535 24.9233V27.5099L25.8215 24.9233L28.0055 23.6316V18.4583C28.0071 16.885 27.6045 15.3391 26.8382 13.9763C26.072 12.6134 24.9691 11.4817 23.6407 10.6951C22.3122 9.90845 20.8052 9.49475 19.2713 9.49561C17.7374 9.49647 16.2307 9.91186 14.9032 10.6999Z" fill="#ADADAD"/>
<path d="M10.683 20.9614L10.5497 21.0414L8.36737 22.333C6.36117 23.521 4.89726 25.4777 4.29767 27.7727C3.69808 30.0676 4.01193 32.5129 5.17018 34.5705C6.32843 36.6282 8.2362 38.1296 10.4738 38.7446C12.7114 39.3596 15.0955 39.0377 17.1017 37.8497L19.2857 36.5564L17.1017 35.2647V32.678L14.9177 33.9714C14.2539 34.3651 13.5007 34.5725 12.7339 34.5728C11.9671 34.5731 11.2137 34.3663 10.5495 33.9732C9.8854 33.5801 9.33391 33.0145 8.95056 32.3333C8.5672 31.6522 8.3655 30.8795 8.36574 30.093C8.36574 28.493 9.19937 27.013 10.5497 26.213L12.7337 24.9197L17.1017 27.5064V24.9197L19.2857 23.628L14.9177 21.0414L12.7337 19.748L10.683 20.9614Z" fill="#ADADAD"/>
<path d="M38.1445 18.2236H41.9048V26.3636C42.4167 25.7253 42.9367 25.297 43.4648 25.0753C44.054 24.8438 44.6815 24.7317 45.3124 24.7453C46.6563 24.7453 47.6719 25.1253 48.3577 25.8853C49.0434 26.6453 49.3863 27.672 49.3863 28.9653V35.912H45.6244V30.392C45.6244 29.8386 45.5822 29.392 45.4993 29.0503C45.4392 28.7517 45.2951 28.4776 45.0849 28.262C44.752 27.9629 44.3216 27.8029 43.8792 27.8136C43.2422 27.8136 42.753 28.0086 42.4134 28.4003C42.0738 28.7903 41.9048 29.3486 41.9048 30.0736V35.912H38.1445V18.2236Z" fill="#ADADAD"/>
<path d="M55.5613 35.9154H51.8011V24.982H55.5613V35.9154ZM51.5508 20.7837C51.5508 20.4854 51.6061 20.2054 51.7166 19.942C51.9347 19.42 52.3402 19.0041 52.8492 18.7804C53.106 18.667 53.379 18.6104 53.6698 18.6104C53.9623 18.6104 54.2353 18.667 54.4921 18.7804C55.0006 19.0048 55.4059 19.4205 55.6247 19.942C55.7352 20.2054 55.7905 20.4854 55.7905 20.7837C55.7905 21.0837 55.7352 21.3637 55.6247 21.6254C55.4062 22.1471 55.0008 22.5629 54.4921 22.787C54.2324 22.9015 53.9524 22.9594 53.6698 22.957C53.3806 22.957 53.106 22.9004 52.8492 22.787C52.34 22.5637 51.9343 22.1477 51.7166 21.6254C51.6053 21.3595 51.5488 21.073 51.5508 20.7837Z" fill="#ADADAD"/>
<path d="M60.945 24.9917L63.48 30.5967L66.0573 24.9917H70.2547L64.7069 35.925H62.1914L56.707 24.9917H60.945Z" fill="#ADADAD"/>
<path d="M78.4897 28.8663C78.383 28.3568 78.1123 27.8989 77.7211 27.5663C77.3217 27.2356 76.8204 27.0619 76.3073 27.0763C75.7256 27.0763 75.2511 27.233 74.8838 27.5447C74.5182 27.858 74.2858 28.298 74.1883 28.8663H78.4897ZM74.086 31.1047C74.086 32.7663 74.8465 33.598 76.3707 33.598C77.1881 33.598 77.804 33.2563 78.22 32.5747H81.8551C81.1222 35.0747 79.2876 36.3247 76.3496 36.3247C75.508 36.3356 74.671 36.1957 73.8763 35.9113C73.1639 35.6558 72.5102 35.2531 71.9556 34.728C71.4206 34.2144 70.9989 33.5893 70.719 32.8947C70.4193 32.1376 70.2706 31.3266 70.2818 30.5097C70.2818 29.5997 70.42 28.7797 70.6978 28.048C70.9741 27.3147 71.369 26.6947 71.8825 26.1813C72.4143 25.6579 73.0477 25.2552 73.7415 24.9997C74.4695 24.723 75.2901 24.583 76.2033 24.583C77.1036 24.583 77.9145 24.723 78.6343 24.9997C79.3242 25.2565 79.9494 25.6682 80.4641 26.2047C80.963 26.7297 81.3432 27.3713 81.6065 28.133C81.8697 28.893 82.0013 29.7497 82.0013 30.6997V31.1063H74.0843L74.086 31.1047Z" fill="#ADADAD"/>
</g>
<defs>
<clipPath id="clip0_4941_12500">
<rect width="78" height="30" fill="white" transform="translate(4 9.5)"/>
</clipPath>
</defs>
</svg>
