<svg width="86" height="49" viewBox="0 0 86 49" fill="none" xmlns="http://www.w3.org/2000/svg">
<path d="M15.1825 17.8008C11.6083 17.8008 8.71484 20.6941 8.71484 24.2683C8.71484 27.8426 11.6083 30.736 15.1825 30.736C18.7567 30.736 21.6501 27.8426 21.6501 24.2683C21.6388 20.6941 18.734 17.8008 15.1825 17.8008Z" fill="#ADADAD"/>
<path d="M24.4541 18.3803C26.0834 18.3803 27.4042 17.0595 27.4042 15.4301C27.4042 13.8008 26.0834 12.48 24.4541 12.48C22.8247 12.48 21.5039 13.8008 21.5039 15.4301C21.5039 17.0595 22.8247 18.3803 24.4541 18.3803Z" fill="#ADADAD"/>
<path d="M28.0734 18.3796L27.9599 18.1187L27.7669 18.357C27.2904 18.9017 26.6664 19.3215 25.9855 19.571L25.7927 19.6505L25.872 19.8434C26.4734 21.2617 26.7571 22.7595 26.7571 24.2799C26.7571 30.6682 21.5603 35.8764 15.1607 35.8764C8.76118 35.8764 3.58706 30.6682 3.58706 24.2799C3.58706 17.8917 8.78387 12.6949 15.1834 12.6949C16.9195 12.6949 18.5761 13.0921 20.1419 13.8183L20.3122 13.8977L20.3916 13.7048C20.6866 13.0353 21.1178 12.4453 21.7078 11.9801L21.9461 11.7872L21.6851 11.651C19.654 10.6071 17.4755 10.0625 15.1834 10.0625C7.36553 10.0625 1 16.428 1 24.2459C1 32.0639 7.36553 38.4294 15.1834 38.4294C23.0014 38.4294 29.3669 32.0639 29.3669 24.2459C29.3555 22.2149 28.9243 20.2519 28.0734 18.3796Z" fill="#ADADAD"/>
<path d="M39.6596 18.0859H36.6641V30.4312H39.6596V18.0859Z" fill="#ADADAD"/>
<path d="M71.9292 18.0859H68.9336V30.4312H71.9292V18.0859Z" fill="#ADADAD"/>
<path d="M62.0236 17.8027C59.9244 17.8027 58.3019 19.0736 57.9388 19.4253L57.7346 18.0978H55.2383V30.443H58.2338V22.9769C58.2338 21.5018 60.2195 20.3217 61.6946 20.3217C63.1242 20.3217 64.2475 21.706 64.2475 23.374V30.4544H67.2431V23.669C67.2091 20.4125 65.8134 17.8027 62.0236 17.8027Z" fill="#ADADAD"/>
<path d="M79.758 28.1963C77.5 28.1963 76.0249 26.4488 76.0249 24.259C76.0249 22.069 77.5114 20.3216 79.758 20.3216C81.6643 20.3216 82.8331 22.1711 82.8331 22.1711L84.9889 20.7301C84.3762 19.7657 83.6499 19.1869 82.6515 18.5855C81.9252 18.1431 80.9268 17.7686 79.8375 17.7686C76.1044 17.7686 73.245 20.5826 73.2109 24.2362C73.2223 27.8786 76.0817 30.7039 79.8375 30.7039C80.9382 30.7039 81.9252 30.3408 82.6515 29.887C83.6273 29.2856 84.3762 28.7068 84.9889 27.7424L82.8331 26.3014C82.8331 26.3354 81.6757 28.1963 79.758 28.1963Z" fill="#ADADAD"/>
<path d="M47.4442 17.8025C43.6771 17.8025 40.9766 20.7526 40.9766 24.2021C40.9766 27.7196 43.5976 30.7264 47.5009 30.7264C51.0298 30.7264 53.9005 28.0259 53.9005 24.2815C53.9005 20.0037 50.5533 17.8025 47.4442 17.8025ZM47.4896 20.3555C49.3391 20.3555 51.0979 21.8533 51.0979 24.2928C51.0979 26.6643 49.3505 28.2188 47.4669 28.2188C45.4244 28.2188 43.8019 26.5622 43.8019 24.2815C43.8019 22.0121 45.4018 20.3555 47.4896 20.3555Z" fill="#ADADAD"/>
</svg>
