<svg width="86" height="49" viewBox="0 0 86 49" fill="none" xmlns="http://www.w3.org/2000/svg">
<path d="M60.3553 16.0533C59.8077 15.8623 59.2124 15.6714 58.6172 15.5043C58.7125 15.0985 58.8077 14.7166 58.8791 14.3108C60.1886 7.93751 59.3315 2.7816 56.403 1.11071C53.5936 -0.51245 48.9986 1.18231 44.3798 5.21633C43.9274 5.59825 43.4989 6.02791 43.0465 6.45757C42.737 6.17113 42.4513 5.88469 42.1656 5.62212C37.2848 1.30166 32.4279 -0.53632 29.4995 1.18231C26.6901 2.80547 25.8568 7.6272 27.0472 13.6663C27.1662 14.2392 27.2853 14.8359 27.4519 15.4565C26.7615 15.6475 26.0949 15.8623 25.4521 16.0772C19.7618 18.0822 16.1191 21.2092 16.1191 24.4316C16.1191 27.7734 20.0237 31.1152 25.952 33.168C26.4282 33.3351 26.9043 33.4783 27.4043 33.6216C27.2377 34.266 27.0948 34.9105 26.9758 35.555C25.8568 41.4986 26.7377 46.2249 29.5233 47.8242C32.4041 49.4951 37.261 47.7764 41.9751 43.6469C42.356 43.3128 42.7132 42.9786 43.0941 42.6205C43.5703 43.0979 44.0703 43.5276 44.5464 43.9572C49.1177 47.8958 53.6413 49.4951 56.4269 47.8719C59.3077 46.201 60.26 41.1406 59.022 34.9583C58.9267 34.4809 58.8315 34.0035 58.6887 33.5261C59.022 33.4306 59.3553 33.3113 59.6886 33.2158C65.855 31.163 69.8787 27.845 69.8787 24.4794C69.9263 21.1853 66.1645 18.0584 60.3553 16.0533ZM45.8797 6.95884C49.8557 3.4977 53.5698 2.13711 55.2602 3.09191C57.0697 4.14219 57.7601 8.3433 56.6411 13.8334C56.5697 14.1914 56.4983 14.5495 56.403 14.9075C54.1651 14.3824 51.7366 14.0005 49.2129 13.7618C47.7368 11.6612 46.213 9.72775 44.6655 8.08073C45.0702 7.69881 45.475 7.31689 45.8797 6.95884ZM33.2136 24.5032C33.904 23.0472 34.6659 21.5911 35.4992 20.1589C36.3325 18.7029 37.2134 17.3184 38.1181 16.0055C39.7133 15.8862 41.3561 15.8146 43.0227 15.8146C44.6893 15.8146 46.3321 15.8862 47.9272 16.0055C48.8081 17.3184 49.6891 18.7029 50.5224 20.1589C51.3557 21.615 52.1413 23.071 52.8318 24.4794C52.1413 25.9116 51.3557 27.3915 50.5224 28.8476C49.6891 30.3036 48.8081 31.712 47.951 33.0248C46.3559 33.1442 44.7131 33.1919 43.0227 33.1919C41.3561 33.1919 39.7133 33.1442 38.1419 33.0487C37.2372 31.712 36.3563 30.3036 35.523 28.8714C34.6897 27.3915 33.9278 25.9354 33.2136 24.5032ZM31.9994 27.2005C32.4755 28.1315 32.9993 29.0624 33.5231 29.9933C34.0707 30.9481 34.6421 31.8552 35.2135 32.7622C33.4517 32.5713 31.7851 32.3087 30.2613 31.9745C30.7375 30.423 31.3089 28.8237 31.9994 27.2005ZM31.9994 21.7821C31.3327 20.1828 30.7613 18.6312 30.2851 17.1036C31.8327 16.7694 33.4517 16.4829 35.1659 16.2681C34.5945 17.1513 34.0469 18.0584 33.5231 18.9893C32.9993 19.9202 32.4755 20.8511 31.9994 21.7821ZM52.5223 29.9695C53.0699 29.0147 53.5936 28.0599 54.0936 27.1051C54.8079 28.7521 55.4269 30.3275 55.9031 31.8552C54.3317 32.2132 52.6651 32.4997 50.8795 32.7145C51.4271 31.8313 51.9747 30.9243 52.5223 29.9695ZM54.046 21.7821C53.5698 20.8511 53.0461 19.9202 52.4985 18.9654C51.9747 18.0345 51.4271 17.1513 50.8557 16.2681C52.5699 16.4829 54.2127 16.7694 55.7602 17.1274C55.3079 18.6312 54.7365 20.1828 54.046 21.7821ZM43.0465 9.72775C44.1179 10.8735 45.1654 12.1625 46.213 13.5708C45.1654 13.5231 44.0941 13.4992 43.0227 13.4992C41.9513 13.4992 40.9037 13.5231 39.8562 13.5708C40.9037 12.1864 41.9751 10.8974 43.0465 9.72775ZM30.6423 3.16352C32.4517 2.11324 36.4277 3.61705 40.618 7.34076C40.8799 7.57946 41.1656 7.81816 41.4275 8.08073C39.8562 9.75162 38.3086 11.6851 36.8563 13.7618C34.3326 14.0005 31.9041 14.3824 29.6661 14.8837C29.5233 14.3108 29.4042 13.7618 29.2852 13.2128C28.2852 8.05686 28.9519 4.14219 30.6423 3.16352ZM28.0233 31.4017C27.571 31.2584 27.1186 31.1391 26.6901 30.9959C24.0712 30.0888 21.9046 28.9192 20.4047 27.6541C19.0714 26.5083 18.4048 25.3626 18.4048 24.4555C18.4048 22.4982 21.3332 19.9918 26.1901 18.2732C26.7853 18.0584 27.4043 17.8674 28.0471 17.7003C28.7138 19.8963 29.5947 22.1879 30.6661 24.5032C29.5947 26.8425 28.7138 29.1818 28.0233 31.4017ZM40.4752 41.9044C38.38 43.7424 36.2849 45.0314 34.4516 45.6759C32.785 46.2726 31.4756 46.2726 30.6899 45.8191C28.9995 44.8404 28.2852 41.0451 29.2614 35.9608C29.3804 35.3879 29.4995 34.7912 29.6423 34.1706C31.8565 34.648 34.285 35.006 36.9039 35.2208C38.4038 37.3214 39.9514 39.2549 41.5227 40.9496C41.1656 41.2838 40.8323 41.618 40.4752 41.9044ZM43.1179 39.3026C42.0227 38.133 40.9513 36.8201 39.88 35.4118C40.9037 35.4595 41.9513 35.4834 43.0227 35.4834C44.1179 35.4834 45.2131 35.4595 46.2606 35.4118C45.2131 36.844 44.1655 38.133 43.1179 39.3026ZM57.0697 42.5012C56.7602 44.2437 56.0935 45.3894 55.3079 45.843C53.6175 46.8216 49.9986 45.5565 46.0702 42.167C45.6178 41.7851 45.1654 41.3793 44.7131 40.9258C46.2368 39.2549 47.7368 37.3214 49.2129 35.197C51.808 34.9583 54.2603 34.5764 56.4983 34.0751C56.6173 34.5286 56.7126 34.9583 56.784 35.3879C57.3316 38.1091 57.4268 40.5916 57.0697 42.5012ZM59.022 30.9959C58.7363 31.0913 58.4268 31.1868 58.1173 31.2823C57.4268 29.1101 56.5221 26.8186 55.4031 24.4555C56.4745 22.1401 57.3554 19.8725 58.022 17.7242C58.5696 17.8913 59.1172 18.0584 59.6172 18.2255C64.5932 19.9441 67.6407 22.4743 67.6407 24.4316C67.6168 26.5322 64.3313 29.2295 59.022 30.9959Z" fill="#ADB0B5"/>
<path d="M46.4189 27.8395C48.2971 25.9565 48.2971 22.9036 46.4189 21.0206C44.5408 19.1376 41.4958 19.1376 39.6176 21.0206C37.7395 22.9036 37.7395 25.9565 39.6176 27.8395C41.4958 29.7225 44.5408 29.7225 46.4189 27.8395Z" fill="#ADB0B5"/>
</svg>
