<svg width="86" height="49" viewBox="0 0 86 49" fill="none" xmlns="http://www.w3.org/2000/svg">
<path d="M69.3605 22.4059L57.9829 2.60989C57.613 1.9783 57.0868 1.45249 56.4549 1.08299C55.8231 0.713491 55.1068 0.512729 54.375 0.5H31.6251C30.8933 0.512729 30.177 0.713491 29.5452 1.08299C28.9133 1.45249 28.3871 1.9783 28.0172 2.60989L16.6396 22.4059C16.2854 23.0461 16.0996 23.7657 16.0996 24.4974C16.0996 25.229 16.2854 25.9486 16.6396 26.5888L28.0172 46.3901C28.3871 47.0217 28.9133 47.5475 29.5452 47.917C30.177 48.2865 30.8933 48.4873 31.6251 48.5H54.3803C55.1121 48.4873 55.8284 48.2865 56.4602 47.917C57.0921 47.5475 57.6182 47.0217 57.9882 46.3901L69.3658 26.573C69.7163 25.9343 69.8997 25.2173 69.8988 24.4888C69.8978 23.7602 69.7127 23.0437 69.3605 22.4059ZM54.0743 36.8956H50.1499C50.0592 36.8927 49.9707 36.8664 49.8931 36.8193C49.8155 36.7722 49.7513 36.7058 49.7069 36.6266L43.066 24.7637C43.033 24.7051 43.0115 24.6406 43.0027 24.5738C42.9939 24.6406 42.9724 24.7051 42.9394 24.7637L36.2774 36.6371C36.2344 36.7141 36.1727 36.7791 36.0981 36.8261C36.0234 36.8731 35.9382 36.9006 35.8502 36.9062H31.9258C31.8381 36.9016 31.753 36.8752 31.6781 36.8294C31.6032 36.7835 31.541 36.7198 31.497 36.6438C31.453 36.5679 31.4286 36.4821 31.4261 36.3944C31.4236 36.3066 31.4431 36.2197 31.4827 36.1413L37.9811 24.5L31.4827 12.8429C31.4491 12.7723 31.4316 12.6952 31.4314 12.6171C31.4313 12.539 31.4485 12.4618 31.4818 12.3912C31.5151 12.3205 31.5637 12.2581 31.6241 12.2085C31.6844 12.1589 31.755 12.1234 31.8308 12.1044H35.8502C35.9367 12.1083 36.0209 12.1334 36.0954 12.1776C36.17 12.2217 36.2325 12.2835 36.2774 12.3576L42.9394 24.2363C42.9724 24.2949 42.9939 24.3594 43.0027 24.4262C43.0115 24.3594 43.033 24.2949 43.066 24.2363L49.7069 12.347C49.7545 12.2728 49.8201 12.2116 49.8975 12.1692C49.9749 12.1268 50.0617 12.1045 50.1499 12.1044H54.0743C54.1598 12.1101 54.2427 12.1365 54.3157 12.1815C54.3887 12.2264 54.4496 12.2884 54.4932 12.3621C54.5369 12.4359 54.5619 12.5192 54.5661 12.6048C54.5703 12.6904 54.5536 12.7757 54.5174 12.8534L48.0242 24.5L54.5227 36.1413C54.5601 36.2196 54.5777 36.306 54.5737 36.3927C54.5698 36.4794 54.5446 36.5638 54.5002 36.6384C54.4559 36.713 54.3938 36.7755 54.3195 36.8204C54.2452 36.8652 54.161 36.8911 54.0743 36.8956Z" fill="#ADADAD"/>
</svg>
